<svg xmlns="http://www.w3.org/2000/svg" viewBox="0 0 45 45">
  <ellipse cx="22.5" cy="28" rx="13" ry="9" fill="#8B0000" stroke="#4A0000" stroke-width="1.5"/>
  <rect x="16" y="14" width="13" height="8" fill="#8B0000" stroke="#4A0000" stroke-width="1.5" rx="1"/>
  <rect x="16" y="11" width="3" height="5" fill="#8B0000" stroke="#4A0000" stroke-width="1"/>
  <rect x="21" y="11" width="3" height="5" fill="#8B0000" stroke="#4A0000" stroke-width="1"/>
  <rect x="26" y="11" width="3" height="5" fill="#8B0000" stroke="#4A0000" stroke-width="1"/>
  <circle cx="19" cy="24" r="1.8" fill="#FFD700"/>
  <circle cx="26" cy="24" r="1.8" fill="#FFD700"/>
  <path d="M9 25 L5 22 L3 24 L5 27 L9 27 Z" fill="#8B0000" stroke="#4A0000" stroke-width="1.5"/>
  <path d="M36 25 L40 22 L42 24 L40 27 L36 27 Z" fill="#8B0000" stroke="#4A0000" stroke-width="1.5"/>
  <line x1="12" y1="31" x2="8" y2="35" stroke="#4A0000" stroke-width="1.2" stroke-linecap="round"/>
  <line x1="33" y1="31" x2="37" y2="35" stroke="#4A0000" stroke-width="1.2" stroke-linecap="round"/>
  <line x1="13" y1="33" x2="9" y2="38" stroke="#4A0000" stroke-width="1.2" stroke-linecap="round"/>
  <line x1="32" y1="33" x2="36" y2="38" stroke="#4A0000" stroke-width="1.2" stroke-linecap="round"/>
</svg>
