<svg xmlns="http://www.w3.org/2000/svg" viewBox="0 0 100 100">
  <!-- Black seal Bishop - dark seal with pointed mitre -->
  <ellipse cx="50" cy="72" rx="24" ry="17" fill="#2C3E50" stroke="#1a2530" stroke-width="1.5"/>
  <ellipse cx="50" cy="49" rx="19" ry="18" fill="#34495E" stroke="#1a2530" stroke-width="1.5"/>
  <ellipse cx="50" cy="58" rx="10" ry="6.5" fill="#2C3E50" stroke="#1a2530" stroke-width="1"/>
  <ellipse cx="50" cy="54" rx="4.5" ry="2.8" fill="#0a0a14"/>
  <circle cx="41" cy="46" r="4.5" fill="#00CED1"/>
  <circle cx="59" cy="46" r="4.5" fill="#00CED1"/>
  <circle cx="42.5" cy="44.5" r="1.3" fill="rgba(255,255,255,0.7)"/>
  <circle cx="60.5" cy="44.5" r="1.3" fill="rgba(255,255,255,0.7)"/>
  <ellipse cx="28" cy="76" rx="10" ry="6" fill="#263040" stroke="#1a2530" stroke-width="1" transform="rotate(-25 28 76)"/>
  <ellipse cx="72" cy="76" rx="10" ry="6" fill="#263040" stroke="#1a2530" stroke-width="1" transform="rotate(25 72 76)"/>
  <ellipse cx="50" cy="86" rx="11" ry="5.5" fill="#263040" stroke="#1a2530" stroke-width="1"/>
  <!-- Mitre hat - dark with teal cross -->
  <polygon points="50,12 35,33 65,33" fill="#1a2840" stroke="#2a3e58" stroke-width="1.5"/>
  <rect x="33" y="31" width="34" height="5" rx="2" fill="#0d1e30" stroke="#2a3e58" stroke-width="1"/>
  <line x1="50" y1="15" x2="50" y2="28" stroke="#00CED1" stroke-width="2"/>
  <line x1="44" y1="21" x2="56" y2="21" stroke="#00CED1" stroke-width="2"/>
  <circle cx="50" cy="12" r="3.5" fill="#00CED1"/>
  <!-- Whiskers -->
  <line x1="37" y1="57" x2="21" y2="54" stroke="#4a6070" stroke-width="1"/>
  <line x1="37" y1="60" x2="21" y2="61" stroke="#4a6070" stroke-width="1"/>
  <line x1="63" y1="57" x2="79" y2="54" stroke="#4a6070" stroke-width="1"/>
  <line x1="63" y1="60" x2="79" y2="61" stroke="#4a6070" stroke-width="1"/>
</svg>
