<svg xmlns="http://www.w3.org/2000/svg" viewBox="0 0 100 100">
  <!-- Black seal Queen - dark seal with jeweled tiara -->
  <ellipse cx="50" cy="72" rx="25" ry="17" fill="#2C3E50" stroke="#1a2530" stroke-width="1.5"/>
  <ellipse cx="50" cy="48" rx="20" ry="18" fill="#34495E" stroke="#1a2530" stroke-width="1.5"/>
  <ellipse cx="50" cy="57" rx="10" ry="7" fill="#2C3E50" stroke="#1a2530" stroke-width="1"/>
  <ellipse cx="50" cy="53" rx="4.5" ry="2.8" fill="#0a0a14"/>
  <circle cx="40" cy="45" r="5" fill="#00CED1"/>
  <circle cx="60" cy="45" r="5" fill="#00CED1"/>
  <circle cx="41.5" cy="43.5" r="1.5" fill="rgba(255,255,255,0.7)"/>
  <circle cx="61.5" cy="43.5" r="1.5" fill="rgba(255,255,255,0.7)"/>
  <ellipse cx="28" cy="76" rx="11" ry="6" fill="#263040" stroke="#1a2530" stroke-width="1" transform="rotate(-25 28 76)"/>
  <ellipse cx="72" cy="76" rx="11" ry="6" fill="#263040" stroke="#1a2530" stroke-width="1" transform="rotate(25 72 76)"/>
  <ellipse cx="50" cy="86" rx="12" ry="6" fill="#263040" stroke="#1a2530" stroke-width="1"/>
  <!-- Tiara -->
  <path d="M30 32 Q50 28 70 32" stroke="#FFD700" stroke-width="4" fill="none" stroke-linecap="round"/>
  <line x1="35" y1="32" x2="33" y2="22" stroke="#FFD700" stroke-width="2.5"/>
  <circle cx="33" cy="20" r="4" fill="#00CED1" stroke="#008B99" stroke-width="1"/>
  <line x1="50" y1="30" x2="50" y2="18" stroke="#FFD700" stroke-width="2.5"/>
  <circle cx="50" cy="16" r="5" fill="#9B59B6" stroke="#7B3996" stroke-width="1"/>
  <line x1="65" y1="32" x2="67" y2="22" stroke="#FFD700" stroke-width="2.5"/>
  <circle cx="67" cy="20" r="4" fill="#00CED1" stroke="#008B99" stroke-width="1"/>
  <circle cx="42" cy="30" r="2.5" fill="#FFD700"/>
  <circle cx="58" cy="30" r="2.5" fill="#FFD700"/>
  <!-- Whiskers -->
  <line x1="37" y1="56" x2="21" y2="53" stroke="#4a6070" stroke-width="1"/>
  <line x1="37" y1="59" x2="21" y2="60" stroke="#4a6070" stroke-width="1"/>
  <line x1="63" y1="56" x2="79" y2="53" stroke="#4a6070" stroke-width="1"/>
  <line x1="63" y1="59" x2="79" y2="60" stroke="#4a6070" stroke-width="1"/>
</svg>
