<svg xmlns="http://www.w3.org/2000/svg" viewBox="0 0 45 45">
  <ellipse cx="22.5" cy="29" rx="15" ry="10" fill="#8B0000" stroke="#4A0000" stroke-width="1.5"/>
  <path d="M15 20 L17 13 L20 18 L22.5 10 L25 18 L28 13 L30 20 Z" fill="#8B0000" stroke="#4A0000" stroke-width="1.5" stroke-linejoin="round"/>
  <line x1="22.5" y1="10" x2="22.5" y2="5" stroke="#4A0000" stroke-width="2" stroke-linecap="round"/>
  <line x1="20" y1="7.5" x2="25" y2="7.5" stroke="#4A0000" stroke-width="2" stroke-linecap="round"/>
  <circle cx="17" cy="14" r="1.2" fill="#FFD700"/>
  <circle cx="22.5" cy="11" r="1.2" fill="#FFD700"/>
  <circle cx="28" cy="14" r="1.2" fill="#FFD700"/>
  <circle cx="19" cy="25" r="2.2" fill="#FFD700"/>
  <circle cx="26" cy="25" r="2.2" fill="#FFD700"/>
  <path d="M7 25 Q2 20 1 23 Q0 27 3 29 L7 29 Z" fill="#8B0000" stroke="#4A0000" stroke-width="1.5"/>
  <path d="M38 25 Q43 20 44 23 Q45 27 42 29 L38 29 Z" fill="#8B0000" stroke="#4A0000" stroke-width="1.5"/>
  <line x1="10" y1="32" x2="6" y2="36" stroke="#4A0000" stroke-width="1.2" stroke-linecap="round"/>
  <line x1="35" y1="32" x2="39" y2="36" stroke="#4A0000" stroke-width="1.2" stroke-linecap="round"/>
  <line x1="11" y1="34" x2="7" y2="39" stroke="#4A0000" stroke-width="1.2" stroke-linecap="round"/>
  <line x1="34" y1="34" x2="38" y2="39" stroke="#4A0000" stroke-width="1.2" stroke-linecap="round"/>
  <line x1="13" y1="36" x2="9" y2="41" stroke="#4A0000" stroke-width="1" stroke-linecap="round"/>
  <line x1="32" y1="36" x2="36" y2="41" stroke="#4A0000" stroke-width="1" stroke-linecap="round"/>
</svg>
