<svg xmlns="http://www.w3.org/2000/svg" viewBox="0 0 100 100">
  <!-- Black seal Knight - dark seal balancing a ball -->
  <ellipse cx="50" cy="72" rx="24" ry="17" fill="#2C3E50" stroke="#1a2530" stroke-width="1.5"/>
  <ellipse cx="50" cy="52" rx="16" ry="20" fill="#34495E" stroke="#1a2530" stroke-width="1.5" transform="rotate(-10 50 52)"/>
  <ellipse cx="56" cy="33" rx="15" ry="14" fill="#34495E" stroke="#1a2530" stroke-width="1.5"/>
  <ellipse cx="62" cy="27" rx="8" ry="5" fill="#2C3E50" stroke="#1a2530" stroke-width="1" transform="rotate(-20 62 27)"/>
  <ellipse cx="65" cy="24" rx="3.5" ry="2.2" fill="#0a0a14" transform="rotate(-20 65 24)"/>
  <circle cx="50" cy="30" r="4.5" fill="#00CED1"/>
  <circle cx="64" cy="34" r="4.5" fill="#00CED1"/>
  <circle cx="51.5" cy="28.5" r="1.3" fill="rgba(255,255,255,0.7)"/>
  <circle cx="65.5" cy="32.5" r="1.3" fill="rgba(255,255,255,0.7)"/>
  <!-- Glowing teal ball -->
  <circle cx="68" cy="18" r="7" fill="#00CED1" stroke="#008B99" stroke-width="1.5"/>
  <circle cx="65" cy="15" r="2" fill="rgba(255,255,255,0.4)"/>
  <ellipse cx="30" cy="68" rx="11" ry="6" fill="#263040" stroke="#1a2530" stroke-width="1" transform="rotate(-30 30 68)"/>
  <ellipse cx="68" cy="76" rx="11" ry="6" fill="#263040" stroke="#1a2530" stroke-width="1" transform="rotate(15 68 76)"/>
  <ellipse cx="44" cy="86" rx="11" ry="5" fill="#263040" stroke="#1a2530" stroke-width="1" transform="rotate(10 44 86)"/>
  <!-- Whiskers -->
  <line x1="56" y1="28" x2="70" y2="22" stroke="#4a6070" stroke-width="1"/>
  <line x1="55" y1="31" x2="70" y2="29" stroke="#4a6070" stroke-width="1"/>
  <line x1="48" y1="28" x2="35" y2="22" stroke="#4a6070" stroke-width="1"/>
  <line x1="49" y1="31" x2="35" y2="29" stroke="#4a6070" stroke-width="1"/>
</svg>
