<svg xmlns="http://www.w3.org/2000/svg" viewBox="0 0 45 45">
  <ellipse cx="22.5" cy="28" rx="13" ry="9" fill="#8B0000" stroke="#4A0000" stroke-width="1.5"/>
  <line x1="19" y1="23" x2="16" y2="16" stroke="#4A0000" stroke-width="1.5" stroke-linecap="round"/>
  <line x1="26" y1="23" x2="29" y2="16" stroke="#4A0000" stroke-width="1.5" stroke-linecap="round"/>
  <circle cx="16" cy="15.5" r="2" fill="#FFD700"/>
  <circle cx="29" cy="15.5" r="2" fill="#FFD700"/>
  <path d="M9 24 L3 18 L1 20 L2 25 L5 28 L9 27 Z" fill="#8B0000" stroke="#4A0000" stroke-width="1.5"/>
  <path d="M3 18 L6 15 L4 13 L1 16 Z" fill="#8B0000" stroke="#4A0000" stroke-width="1.2"/>
  <path d="M36 25 Q39 23 40 25 Q41 27 38 27 Z" fill="#8B0000" stroke="#4A0000" stroke-width="1.2"/>
  <line x1="12" y1="31" x2="8" y2="36" stroke="#4A0000" stroke-width="1.2" stroke-linecap="round"/>
  <line x1="33" y1="31" x2="37" y2="36" stroke="#4A0000" stroke-width="1.2" stroke-linecap="round"/>
  <line x1="13" y1="33" x2="9" y2="38" stroke="#4A0000" stroke-width="1.2" stroke-linecap="round"/>
  <line x1="32" y1="33" x2="36" y2="38" stroke="#4A0000" stroke-width="1.2" stroke-linecap="round"/>
</svg>
