<svg xmlns="http://www.w3.org/2000/svg" viewBox="0 0 45 45">
  <ellipse cx="22.5" cy="30" rx="12" ry="8" fill="#8B0000" stroke="#4A0000" stroke-width="1.5"/>
  <circle cx="19" cy="24" r="2" fill="#FFD700"/>
  <circle cx="26" cy="24" r="2" fill="#FFD700"/>
  <line x1="19" y1="24" x2="17" y2="20" stroke="#4A0000" stroke-width="1.5" stroke-linecap="round"/>
  <line x1="26" y1="24" x2="28" y2="20" stroke="#4A0000" stroke-width="1.5" stroke-linecap="round"/>
  <circle cx="17" cy="19.5" r="1.5" fill="#FFD700"/>
  <circle cx="28" cy="19.5" r="1.5" fill="#FFD700"/>
  <path d="M10 28 Q7 26 6 28 Q5 30 8 30 Z" fill="#8B0000" stroke="#4A0000" stroke-width="1"/>
  <path d="M35 28 Q38 26 39 28 Q40 30 37 30 Z" fill="#8B0000" stroke="#4A0000" stroke-width="1"/>
  <line x1="13" y1="32" x2="9" y2="36" stroke="#4A0000" stroke-width="1" stroke-linecap="round"/>
  <line x1="32" y1="32" x2="36" y2="36" stroke="#4A0000" stroke-width="1" stroke-linecap="round"/>
  <line x1="14" y1="34" x2="10" y2="38" stroke="#4A0000" stroke-width="1" stroke-linecap="round"/>
  <line x1="31" y1="34" x2="35" y2="38" stroke="#4A0000" stroke-width="1" stroke-linecap="round"/>
</svg>
