<svg xmlns="http://www.w3.org/2000/svg" viewBox="0 0 45 45">
  <!-- Crab body -->
  <ellipse cx="22.5" cy="28" rx="13" ry="9" fill="#F5E6CA" stroke="#8B6914" stroke-width="1.5"/>
  <!-- Castle turret on shell -->
  <rect x="16" y="14" width="13" height="8" fill="#F5E6CA" stroke="#8B6914" stroke-width="1.5" rx="1"/>
  <rect x="16" y="11" width="3" height="5" fill="#F5E6CA" stroke="#8B6914" stroke-width="1"/>
  <rect x="21" y="11" width="3" height="5" fill="#F5E6CA" stroke="#8B6914" stroke-width="1"/>
  <rect x="26" y="11" width="3" height="5" fill="#F5E6CA" stroke="#8B6914" stroke-width="1"/>
  <!-- Eyes -->
  <circle cx="19" cy="24" r="1.8" fill="#333"/>
  <circle cx="26" cy="24" r="1.8" fill="#333"/>
  <!-- Blocky claws -->
  <path d="M9 25 L5 22 L3 24 L5 27 L9 27 Z" fill="#F5E6CA" stroke="#8B6914" stroke-width="1.5"/>
  <path d="M36 25 L40 22 L42 24 L40 27 L36 27 Z" fill="#F5E6CA" stroke="#8B6914" stroke-width="1.5"/>
  <!-- Legs -->
  <line x1="12" y1="31" x2="8" y2="35" stroke="#8B6914" stroke-width="1.2" stroke-linecap="round"/>
  <line x1="33" y1="31" x2="37" y2="35" stroke="#8B6914" stroke-width="1.2" stroke-linecap="round"/>
  <line x1="13" y1="33" x2="9" y2="38" stroke="#8B6914" stroke-width="1.2" stroke-linecap="round"/>
  <line x1="32" y1="33" x2="36" y2="38" stroke="#8B6914" stroke-width="1.2" stroke-linecap="round"/>
</svg>
