<svg xmlns="http://www.w3.org/2000/svg" viewBox="0 0 100 100">
  <!-- White baby seal pawn - tiny pup -->
  <ellipse cx="50" cy="68" rx="22" ry="16" fill="#F0F4FF" stroke="#9AAAC0" stroke-width="1.5"/>
  <ellipse cx="50" cy="46" rx="18" ry="16" fill="#F5F8FF" stroke="#9AAAC0" stroke-width="1.5"/>
  <ellipse cx="50" cy="54" rx="9" ry="6" fill="#E8EEF8" stroke="#9AAAC0" stroke-width="1"/>
  <ellipse cx="50" cy="51" rx="4" ry="2.5" fill="#3a3a5a"/>
  <circle cx="42" cy="44" r="4" fill="#111122"/>
  <circle cx="58" cy="44" r="4" fill="#111122"/>
  <circle cx="43.5" cy="42.5" r="2.0" fill="white"/>
  <circle cx="59.5" cy="42.5" r="2.0" fill="white"/>
  <circle cx="44.8" cy="43.6" r="1.0" fill="rgba(255,255,255,0.5)"/>
  <circle cx="60.8" cy="43.6" r="1.0" fill="rgba(255,255,255,0.5)"/>
  <ellipse cx="30" cy="72" rx="9" ry="5" fill="#E0E8F5" stroke="#9AAAC0" stroke-width="1" transform="rotate(-20 30 72)"/>
  <ellipse cx="70" cy="72" rx="9" ry="5" fill="#E0E8F5" stroke="#9AAAC0" stroke-width="1" transform="rotate(20 70 72)"/>
  <ellipse cx="50" cy="81" rx="10" ry="5" fill="#E0E8F5" stroke="#9AAAC0" stroke-width="1"/>
  <!-- Blush cheeks -->
  <ellipse cx="32" cy="51" rx="6" ry="4" fill="rgba(255,130,130,0.30)"/>
  <ellipse cx="68" cy="51" rx="6" ry="4" fill="rgba(255,130,130,0.30)"/>
  <!-- Smile -->
  <path d="M 44,57 Q 50,61 56,57" stroke="rgba(80,40,40,0.35)" stroke-width="1.2" fill="none" stroke-linecap="round"/>
  <line x1="37" y1="53" x2="24" y2="51" stroke="#9AAAC0" stroke-width="1"/>
  <line x1="37" y1="55" x2="24" y2="56" stroke="#9AAAC0" stroke-width="1"/>
  <line x1="63" y1="53" x2="76" y2="51" stroke="#9AAAC0" stroke-width="1"/>
  <line x1="63" y1="55" x2="76" y2="56" stroke="#9AAAC0" stroke-width="1"/>
</svg>
