<svg xmlns="http://www.w3.org/2000/svg" viewBox="0 0 100 100">
  <!-- White seal Queen - wears a jeweled tiara -->
  <ellipse cx="50" cy="72" rx="25" ry="17" fill="#F0F4FF" stroke="#9AAAC0" stroke-width="1.5"/>
  <ellipse cx="50" cy="48" rx="20" ry="18" fill="#F5F8FF" stroke="#9AAAC0" stroke-width="1.5"/>
  <ellipse cx="50" cy="57" rx="10" ry="7" fill="#E8EEF8" stroke="#9AAAC0" stroke-width="1"/>
  <ellipse cx="50" cy="53" rx="4.5" ry="2.8" fill="#3a3a5a"/>
  <circle cx="40" cy="45" r="5" fill="#111122"/>
  <circle cx="60" cy="45" r="5" fill="#111122"/>
  <circle cx="41.5" cy="43.5" r="2.0" fill="white"/>
  <circle cx="61.5" cy="43.5" r="2.0" fill="white"/>
  <circle cx="42.8" cy="44.6" r="1.0" fill="rgba(255,255,255,0.5)"/>
  <circle cx="62.8" cy="44.6" r="1.0" fill="rgba(255,255,255,0.5)"/>
  <ellipse cx="28" cy="76" rx="11" ry="6" fill="#E0E8F5" stroke="#9AAAC0" stroke-width="1" transform="rotate(-25 28 76)"/>
  <ellipse cx="72" cy="76" rx="11" ry="6" fill="#E0E8F5" stroke="#9AAAC0" stroke-width="1" transform="rotate(25 72 76)"/>
  <ellipse cx="50" cy="86" rx="12" ry="6" fill="#E0E8F5" stroke="#9AAAC0" stroke-width="1"/>
  <!-- Tiara band -->
  <path d="M30 32 Q50 28 70 32" stroke="#FFD700" stroke-width="4" fill="none" stroke-linecap="round"/>
  <!-- Tiara points with gems -->
  <line x1="35" y1="32" x2="33" y2="22" stroke="#FFD700" stroke-width="2.5"/>
  <circle cx="33" cy="20" r="4" fill="#FF69B4" stroke="#CC5090" stroke-width="1"/>
  <line x1="50" y1="30" x2="50" y2="18" stroke="#FFD700" stroke-width="2.5"/>
  <circle cx="50" cy="16" r="5" fill="#9B59B6" stroke="#7B3996" stroke-width="1"/>
  <line x1="65" y1="32" x2="67" y2="22" stroke="#FFD700" stroke-width="2.5"/>
  <circle cx="67" cy="20" r="4" fill="#FF69B4" stroke="#CC5090" stroke-width="1"/>
  <!-- Extra small gems -->
  <circle cx="42" cy="30" r="2.5" fill="#FFD700"/>
  <circle cx="58" cy="30" r="2.5" fill="#FFD700"/>
  <!-- Blush cheeks - eyes at 40,45 and 60,45 -->
  <ellipse cx="30" cy="52" rx="6" ry="4" fill="rgba(255,130,130,0.30)"/>
  <ellipse cx="70" cy="52" rx="6" ry="4" fill="rgba(255,130,130,0.30)"/>
  <!-- Smile on muzzle - muzzle center 50,57, ry=7 -->
  <path d="M 44,60 Q 50,64 56,60" stroke="rgba(80,40,40,0.35)" stroke-width="1.2" fill="none" stroke-linecap="round"/>
  <!-- Whiskers -->
  <line x1="37" y1="56" x2="21" y2="53" stroke="#9AAAC0" stroke-width="1"/>
  <line x1="37" y1="59" x2="21" y2="60" stroke="#9AAAC0" stroke-width="1"/>
  <line x1="63" y1="56" x2="79" y2="53" stroke="#9AAAC0" stroke-width="1"/>
  <line x1="63" y1="59" x2="79" y2="60" stroke="#9AAAC0" stroke-width="1"/>
</svg>
