<svg xmlns="http://www.w3.org/2000/svg" viewBox="0 0 100 100">
  <!-- White seal King - wears a golden crown -->
  <!-- Body -->
  <ellipse cx="50" cy="72" rx="26" ry="18" fill="#F0F4FF" stroke="#9AAAC0" stroke-width="1.5"/>
  <!-- Head -->
  <ellipse cx="50" cy="47" rx="21" ry="19" fill="#F5F8FF" stroke="#9AAAC0" stroke-width="1.5"/>
  <!-- Snout -->
  <ellipse cx="50" cy="56" rx="11" ry="7" fill="#E8EEF8" stroke="#9AAAC0" stroke-width="1"/>
  <!-- Nose -->
  <ellipse cx="50" cy="52" rx="5" ry="3" fill="#3a3a5a"/>
  <!-- Eyes -->
  <circle cx="40" cy="44" r="5" fill="#111122"/>
  <circle cx="60" cy="44" r="5" fill="#111122"/>
  <circle cx="41.5" cy="42.5" r="2.0" fill="white"/>
  <circle cx="61.5" cy="42.5" r="2.0" fill="white"/>
  <circle cx="42.8" cy="43.6" r="1.0" fill="rgba(255,255,255,0.5)"/>
  <circle cx="62.8" cy="43.6" r="1.0" fill="rgba(255,255,255,0.5)"/>
  <!-- Flippers -->
  <ellipse cx="27" cy="76" rx="11" ry="6" fill="#E0E8F5" stroke="#9AAAC0" stroke-width="1" transform="rotate(-25 27 76)"/>
  <ellipse cx="73" cy="76" rx="11" ry="6" fill="#E0E8F5" stroke="#9AAAC0" stroke-width="1" transform="rotate(25 73 76)"/>
  <!-- Tail -->
  <ellipse cx="50" cy="87" rx="12" ry="6" fill="#E0E8F5" stroke="#9AAAC0" stroke-width="1"/>
  <!-- Crown base -->
  <rect x="30" y="26" width="40" height="8" rx="3" fill="#FFD700" stroke="#C8A000" stroke-width="1"/>
  <!-- Crown spikes -->
  <polygon points="30,34 35,18 40,34" fill="#FFD700" stroke="#C8A000" stroke-width="1"/>
  <polygon points="43,34 50,16 57,34" fill="#FFD700" stroke="#C8A000" stroke-width="1"/>
  <polygon points="60,34 65,18 70,34" fill="#FFD700" stroke="#C8A000" stroke-width="1"/>
  <!-- Crown gems -->
  <circle cx="37.5" cy="26" r="3" fill="#FF4444"/>
  <circle cx="50" cy="24" r="3" fill="#4444FF"/>
  <circle cx="62.5" cy="26" r="3" fill="#44CC44"/>
  <!-- Blush cheeks - eyes at 40,44 and 60,44 -->
  <ellipse cx="29" cy="51" rx="7" ry="4.5" fill="rgba(255,130,130,0.30)"/>
  <ellipse cx="71" cy="51" rx="7" ry="4.5" fill="rgba(255,130,130,0.30)"/>
  <!-- Smile on snout - snout center 50,56, rx=11 -->
  <path d="M 44,59 Q 50,63 56,59" stroke="rgba(80,40,40,0.35)" stroke-width="1.2" fill="none" stroke-linecap="round"/>
  <!-- Whiskers -->
  <line x1="36" y1="55" x2="20" y2="52" stroke="#9AAAC0" stroke-width="1"/>
  <line x1="36" y1="58" x2="20" y2="59" stroke="#9AAAC0" stroke-width="1"/>
  <line x1="64" y1="55" x2="80" y2="52" stroke="#9AAAC0" stroke-width="1"/>
  <line x1="64" y1="58" x2="80" y2="59" stroke="#9AAAC0" stroke-width="1"/>
</svg>
