<svg xmlns="http://www.w3.org/2000/svg" viewBox="0 0 45 45">
  <!-- Crab body -->
  <ellipse cx="22.5" cy="29" rx="13" ry="9" fill="#F5E6CA" stroke="#8B6914" stroke-width="1.5"/>
  <!-- Mitre/pointed shell -->
  <path d="M22.5 8 L17 22 L28 22 Z" fill="#F5E6CA" stroke="#8B6914" stroke-width="1.5" stroke-linejoin="round"/>
  <line x1="22.5" y1="8" x2="22.5" y2="5" stroke="#8B6914" stroke-width="1.5" stroke-linecap="round"/>
  <circle cx="22.5" cy="4.5" r="1.5" fill="#8B6914"/>
  <!-- Diagonal line on mitre -->
  <line x1="20" y1="18" x2="25" y2="13" stroke="#8B6914" stroke-width="1" opacity="0.5"/>
  <!-- Eyes -->
  <circle cx="19" cy="25" r="1.8" fill="#333"/>
  <circle cx="26" cy="25" r="1.8" fill="#333"/>
  <!-- Claws -->
  <path d="M9 26 Q5 23 4 26 Q3 29 7 29 Z" fill="#F5E6CA" stroke="#8B6914" stroke-width="1.3"/>
  <path d="M36 26 Q40 23 41 26 Q42 29 38 29 Z" fill="#F5E6CA" stroke="#8B6914" stroke-width="1.3"/>
  <!-- Legs -->
  <line x1="12" y1="32" x2="8" y2="36" stroke="#8B6914" stroke-width="1.2" stroke-linecap="round"/>
  <line x1="33" y1="32" x2="37" y2="36" stroke="#8B6914" stroke-width="1.2" stroke-linecap="round"/>
  <line x1="13" y1="34" x2="9" y2="39" stroke="#8B6914" stroke-width="1.2" stroke-linecap="round"/>
  <line x1="32" y1="34" x2="36" y2="39" stroke="#8B6914" stroke-width="1.2" stroke-linecap="round"/>
</svg>
